<?xml version="1.0" standalone="no"?><!DOCTYPE svg PUBLIC "-//W3C//DTD SVG 1.1//EN" "http://www.w3.org/Graphics/SVG/1.1/DTD/svg11.dtd"><svg t="1621750709361" class="icon" viewBox="0 0 1024 1024" version="1.1" xmlns="http://www.w3.org/2000/svg" p-id="7590" width="64" height="64" xmlns:xlink="http://www.w3.org/1999/xlink"><defs><style type="text/css"></style></defs><path d="M890.96986 479.671711 545.11094 479.671711 545.11094 271.38592 684.78875 271.38592 684.78875 64.500013 343.028339 64.500013 343.028339 271.38592 480.338121 271.38592 480.338121 479.671711 133.397522 479.671711 133.397522 532.849864 133.397522 548.629245 133.397522 755.515153 64.284683 755.515153 64.284683 959.499987 270.160836 959.499987 270.160836 755.515153 202.498081 755.515153 202.498081 548.629245 480.338121 548.629245 480.338121 755.515153 409.786454 755.515153 409.786454 959.499987 615.662607 959.499987 615.662607 755.515153 545.11094 755.515153 545.11094 548.629245 822.225426 548.629245 822.225426 755.515153 753.863725 755.515153 753.863725 959.499987 959.714294 959.499987 959.714294 755.515153 890.96986 755.515153Z" p-id="7591" fill="#f7f7f7"></path></svg>
