<?xml version="1.0" standalone="no"?><!DOCTYPE svg PUBLIC "-//W3C//DTD SVG 1.1//EN" "http://www.w3.org/Graphics/SVG/1.1/DTD/svg11.dtd"><svg t="1621751616853" class="icon" viewBox="0 0 1024 1024" version="1.1" xmlns="http://www.w3.org/2000/svg" p-id="12750" width="64" height="64" xmlns:xlink="http://www.w3.org/1999/xlink"><defs><style type="text/css"></style></defs><path d="M225.5 596.7h63.8V652h-63.8v-55.3z m0-165.8h63.8v55.3h-63.8v-55.3z m0-165.7h63.8v55.3h-63.8v-55.3z m127.6 331.5h446.3V652H353.1v-55.3z m0-165.8h446.3v55.3H353.1v-55.3z m0-165.7h446.3v55.3H353.1v-55.3zM98 156.3v694.3c0 46.6 45 77.7 96.4 77.7h732.5v-46.6H194.4c-19.3 0-32.2-10.4-32.2-25.9 0-15.5 12.8-25.9 32.2-25.9h732.5V99.4H168.7c-32.1 5.1-64.3 31.1-70.7 56.9z" fill="#f7f7f7" p-id="12751"></path></svg>
