<?xml version="1.0" standalone="no"?><!DOCTYPE svg PUBLIC "-//W3C//DTD SVG 1.1//EN" "http://www.w3.org/Graphics/SVG/1.1/DTD/svg11.dtd"><svg t="1621751666911" class="icon" viewBox="0 0 1024 1024" version="1.1" xmlns="http://www.w3.org/2000/svg" p-id="13701" width="64" height="64" xmlns:xlink="http://www.w3.org/1999/xlink"><defs><style type="text/css"></style></defs><path d="M64.28 671v80.3c0 34.76 26.84 62.94 60 62.94h297.47v94.15H285.53c-24.17 0-48.38-0.49-72.54 0h-1.06c-12.54 0-24.55 11.58-24 25.18s10.53 25.17 24 25.17h525.88c24.16 0 48.37 0.49 72.53 0h1.06c12.54 0 24.56-11.58 24-25.17s-10.54-25.18-24-25.18H601.59v-94.11H899.1c33.11 0 59.95-28.18 59.95-62.94V671zM899.77 65H124.9A60 60 0 0 0 65 125v499.3h894.72V125a60 60 0 0 0-59.95-60zM757.46 296.75l-6.89 7.53-77 84.15-36.78 40.22c0.08 1.2 0.14 2.41 0.14 3.63a51.09 51.09 0 1 1-100.6-12.67l-55.74-65.31-38.46-45a51 51 0 0 1-21.7 0.18l-6 5.78-71.92 69.71-30.85 29.9a45.45 45.45 0 1 1-36.1-35.1l2.85-2.76 71.92-69.72 32.2-31.21A51.09 51.09 0 1 1 482 259.44a51.66 51.66 0 0 1-1.28 11.34l10.62 12.44L561.13 365l14.72 17.23a51.85 51.85 0 0 1 10-1 50.84 50.84 0 0 1 22.14 5l76.82-84q15.3-16.73 30.59-33.44a45.42 45.42 0 1 1 42 28z" p-id="13702" fill="#f7f7f7"></path></svg>
