<?xml version="1.0" standalone="no"?><!DOCTYPE svg PUBLIC "-//W3C//DTD SVG 1.1//EN" "http://www.w3.org/Graphics/SVG/1.1/DTD/svg11.dtd"><svg t="1622347629380" class="icon" viewBox="0 0 1025 1024" version="1.1" xmlns="http://www.w3.org/2000/svg" p-id="4602" width="64.0625" height="64" xmlns:xlink="http://www.w3.org/1999/xlink"><defs><style type="text/css"></style></defs><path d="M548.075474 961.502824H37.281249a39.060735 39.060735 0 0 1-37.257932-40.262603V103.368526a39.060735 39.060735 0 0 1 37.257932-40.262604h717.515653a39.060735 39.060735 0 0 1 37.257931 40.262604V513.205775h-60.093438V128.006836H61.919559v773.40255H487.982036l60.093438 63.699045z" fill="#f7f7f7" p-id="4603"></path><path d="M733.764198 513.205775a223.54759 223.54759 0 1 1-225.350393 223.54759 227.153197 227.153197 0 0 1 225.350393-223.54759m0-63.699045A287.246635 287.246635 0 1 0 1022.813636 736.753365a287.246635 287.246635 0 0 0-289.049438-287.246635zM210.951285 0.007812h18.028032a22.835507 22.835507 0 0 1 22.835506 22.835507v145.42612a23.436441 23.436441 0 0 1-22.835506 23.436441h-18.028032a23.436441 23.436441 0 0 1-23.436441-23.436441V25.247056a22.835507 22.835507 0 0 1 22.835507-25.239244z m385.19894 0h18.028031a22.835507 22.835507 0 0 1 23.436441 22.835507v145.42612a23.436441 23.436441 0 0 1-23.436441 23.436441h-18.028031a23.436441 23.436441 0 0 1-22.835507-23.436441V25.247056a22.835507 22.835507 0 0 1 22.835507-25.239244zM157.468125 321.507707h514.399832a31.849522 31.849522 0 0 1 31.849522 31.849522 31.849522 31.849522 0 0 1-31.849522 31.849522H157.468125a31.849522 31.849522 0 0 1-31.849522-31.849522 31.849522 31.849522 0 0 1 31.849522-31.849522z m0 191.698068h257.199916a31.849522 31.849522 0 0 1 31.849522 31.849522 31.849522 31.849522 0 0 1-31.849522 31.849522H157.468125a31.849522 31.849522 0 0 1-31.849522-31.849522 31.849522 31.849522 0 0 1 31.849522-31.849522z m0 191.698068h192.899937a31.248588 31.248588 0 0 1 31.849522 31.849522 31.849522 31.849522 0 0 1-31.849522 31.849522H157.468125a31.849522 31.849522 0 0 1-31.849522-31.849522 31.849522 31.849522 0 0 1 31.849522-31.849522z" fill="#f7f7f7" p-id="4604"></path><path d="M870.777237 829.29726h-152.637333v-212.730771a30.647654 30.647654 0 0 1 30.647654-30.647654 30.647654 30.647654 0 0 1 30.647653 30.647654v152.036398h91.342026a30.046719 30.046719 0 0 1 30.04672 30.647654 30.046719 30.046719 0 0 1-30.04672 30.046719z" fill="#f7f7f7" p-id="4605"></path></svg>
