<?xml version="1.0" standalone="no"?><!DOCTYPE svg PUBLIC "-//W3C//DTD SVG 1.1//EN" "http://www.w3.org/Graphics/SVG/1.1/DTD/svg11.dtd"><svg t="1622347607410" class="icon" viewBox="0 0 1038 1024" version="1.1" xmlns="http://www.w3.org/2000/svg" p-id="3794" width="64.875" height="64" xmlns:xlink="http://www.w3.org/1999/xlink"><defs><style type="text/css"></style></defs><path d="M76.778433 76.778433h776.41112v328.249368h77.209773v-345.071609A59.956192 59.956192 0 0 0 872.599832 0H59.956192A59.956192 59.956192 0 0 0 0 59.956192v898.048863a59.956192 59.956192 0 0 0 59.956192 59.956192H474.473463v-75.915754H76.778433z" p-id="3795" fill="#f7f7f7"></path><path d="M209.631003 256.647009h513.294018v81.091828H209.631003zM209.631003 472.748104h389.068239v81.091829H209.631003zM209.631003 684.535805h278.213984v81.091828H209.631003zM914.871104 774.685762a163.046335 163.046335 0 1 0-227.747262 0 180.731255 180.731255 0 0 0-122.069082 180.731256c0 68.582982 102.227464 68.582982 243.706824 68.582982h86.267902c59.956192 0 101.364785-3.450716 125.088458-27.605729a57.799495 57.799495 0 0 0 17.68492-43.133951 172.535805 172.535805 0 0 0-122.93176-178.574558zM733.277169 590.503791a94.894693 94.894693 0 0 1 67.288964-28.037068 92.306655 92.306655 0 1 1-67.288964 26.74305z m122.500422 364.913227h-46.584668a862.679023 862.679023 0 0 1-172.535804-10.352149c5.607414-99.639427 92.737995-121.206403 166.065712-121.206402 144.498736 0 164.771693 70.73968 166.497051 125.951137a480.943555 480.943555 0 0 1-113.442291 5.607414z" p-id="3796" fill="#f7f7f7"></path></svg>
