<?xml version="1.0" standalone="no"?><!DOCTYPE svg PUBLIC "-//W3C//DTD SVG 1.1//EN" "http://www.w3.org/Graphics/SVG/1.1/DTD/svg11.dtd"><svg t="1622347409604" class="icon" viewBox="0 0 1024 1024" version="1.1" xmlns="http://www.w3.org/2000/svg" p-id="2382" width="64" height="64" xmlns:xlink="http://www.w3.org/1999/xlink"><defs><style type="text/css"></style></defs><path d="M299.1872 255.5904a42.496 42.496 0 0 0 42.5728-42.5472V42.752a42.5728 42.5728 0 0 0-85.1712 0v170.24c0 23.552 19.0464 42.5984 42.5984 42.5984zM512.1536 255.5904a42.496 42.496 0 0 0 42.5984-42.5472V42.752a42.5728 42.5728 0 1 0-85.1712 0v170.24c0 23.552 19.0976 42.5984 42.5728 42.5984zM384.4096 81.792h42.5984v85.0688h-42.5984zM597.4784 81.792h42.5728v85.0688H597.504z" fill="#f7f7f7" p-id="2383"></path><path d="M1023.3088 896.1024v-691.2c0.1536-70.6048-57.2416-127.6928-127.744-127.6928h-85.1712v85.0688h85.1712c23.4752 0 42.7264 19.072 42.7264 42.5216v691.3024c0 23.4496-19.2512 42.5984-42.752 42.5984H128.768a42.7264 42.7264 0 0 1-42.5728-42.5984H85.504l0.6656-691.2c0-23.4752 19.0976-42.5472 42.5728-42.5472h85.1712V77.2096H128.768A127.6928 127.6928 0 0 0 1.024 204.8768v691.2a127.616 127.616 0 0 0 127.744 127.6928h766.7968a127.3344 127.3344 0 0 0 127.232-121.344c0.0768-0.3584 0.512-0.7936 0.512-1.152v-3.7888c0-0.512 0.1536-0.9472 0.1536-1.4592h-0.1536v0.0768z" fill="#f7f7f7" p-id="2384"></path><path d="M725.248 255.5904c23.4496 0 42.5728-19.0208 42.5728-42.5472V42.752a42.5728 42.5728 0 0 0-85.1712 0v170.24c0 23.552 18.8672 42.5984 42.5728 42.5984zM255.872 426.4448h511.2064c23.3472 0 42.5728-19.072 42.5728-42.5216 0-23.552-19.2256-42.5472-42.5728-42.5472H255.8464a42.496 42.496 0 1 0 0 85.0688zM767.0784 551.3728H255.8464a42.5728 42.5728 0 1 0 0 85.0688h511.232c23.3216 0 42.5728-19.0976 42.5728-42.5472 0-23.4496-19.2512-42.5216-42.5728-42.5216zM767.0784 769.5872H255.8464a42.5216 42.5216 0 1 0 0 85.0688h511.232c23.3216 0 42.5728-19.1488 42.5728-42.6752 0-23.3984-19.2512-42.3936-42.5728-42.3936z" fill="#f7f7f7" p-id="2385"></path></svg>
