<?xml version="1.0" standalone="no"?><!DOCTYPE svg PUBLIC "-//W3C//DTD SVG 1.1//EN" "http://www.w3.org/Graphics/SVG/1.1/DTD/svg11.dtd"><svg t="1621751435396" class="icon" viewBox="0 0 1024 1024" version="1.1" xmlns="http://www.w3.org/2000/svg" p-id="11906" width="64" height="64" xmlns:xlink="http://www.w3.org/1999/xlink"><defs><style type="text/css"></style></defs><path d="M870 96H154c-49.5 0-90 40.6-90 90.2v651.6c0 49.6 40.5 90.2 90 90.2h716c49.5 0 90-40.6 90-90.2V186.2c0-49.6-40.5-90.2-90-90.2zM177.5 314.4h167.3v59.9H177.5v-59.9z m0 223.5h167.3v59.9H177.5v-59.9z m646.4 229.9v-0.2H362.8v0.2h-59.7c0-20.1 2.3-39.9 6.9-59.1v-1.2h0.3c3.8-15.7 9.1-31 16-46 14.8-32.3 35.9-61.3 62.7-86.1 36.8-34 81.6-57.7 130.5-69.7-39.8-24.8-66.3-69-66.3-119.4 0-77.6 62.7-140.6 140.2-140.6 77.5 0 140.2 63 140.2 140.6 0 50.4-26.5 94.6-66.3 119.4 48.9 11.9 93.7 35.6 130.5 69.7 26.8 24.8 47.9 53.8 62.7 86.1 15.4 33.7 23.2 69.4 23.2 106.3h-59.8z" fill="#f7f7f7" p-id="11907"></path></svg>
