<?xml version="1.0" standalone="no"?><!DOCTYPE svg PUBLIC "-//W3C//DTD SVG 1.1//EN" "http://www.w3.org/Graphics/SVG/1.1/DTD/svg11.dtd"><svg t="1621744473001" class="icon" viewBox="0 0 1024 1024" version="1.1" xmlns="http://www.w3.org/2000/svg" p-id="2398" width="64" height="64" xmlns:xlink="http://www.w3.org/1999/xlink"><defs><style type="text/css"></style></defs><path d="M822.857143 475.428571a36.571429 36.571429 0 0 1 36.571428 36.571429v91.428571a347.428571 347.428571 0 0 1-694.857142 0v-91.428571a36.571429 36.571429 0 0 1 36.571428-36.571429h621.714286m0-73.142857H201.142857a109.714286 109.714286 0 0 0-109.714286 109.714286v91.428571a420.571429 420.571429 0 0 0 420.571429 420.571429 420.571429 420.571429 0 0 0 420.571429-420.571429v-91.428571a109.714286 109.714286 0 0 0-109.714286-109.714286z" p-id="2399" fill="#c1c4cc"></path><path d="M731.428571 475.428571a36.571429 36.571429 0 0 1-36.571428-36.571428V256a182.857143 182.857143 0 0 0-365.714286 0v182.857143a36.571429 36.571429 0 0 1-73.142857 0V256a256 256 0 0 1 512 0v182.857143a36.571429 36.571429 0 0 1-36.571429 36.571428zM512 768a36.571429 36.571429 0 0 1-36.571429-36.571429v-146.285714a36.571429 36.571429 0 0 1 73.142858 0v146.285714a36.571429 36.571429 0 0 1-36.571429 36.571429z" p-id="2400" fill="#c1c4cc"></path></svg>
