<?xml version="1.0" standalone="no"?><!DOCTYPE svg PUBLIC "-//W3C//DTD SVG 1.1//EN" "http://www.w3.org/Graphics/SVG/1.1/DTD/svg11.dtd"><svg t="1621750614796" class="icon" viewBox="0 0 1024 1024" version="1.1" xmlns="http://www.w3.org/2000/svg" p-id="6622" width="64" height="64" xmlns:xlink="http://www.w3.org/1999/xlink"><defs><style type="text/css"></style></defs><path d="M782.215429 604.888761l-18.436207-15.623905-4.609052-3.749737c-3.827857-3.2029-7.811952-6.249562-11.48357-9.296223l-5.234008-3.905976-1.093673-0.859315-6.56204-4.765291c-3.359139-2.421705-6.796398-4.765291-10.233658-7.030757l-2.343585-1.56239a382.082586 382.082586 0 0 0-109.367332-49.293419 264.668943 264.668943 0 1 0-204.438791 0 385.129247 385.129247 0 0 0-108.0393 48.98094l-2.265466 1.562391c-3.515379 2.265466-6.952638 4.609052-10.233658 7.030757l-6.640159 4.84341-0.937434 0.624957-5.312128 4.062215c-3.905976 2.968542-7.811952 6.093323-11.952287 9.608701l-4.062215 3.437259-18.592446 15.623905 0.937434 0.546836A397.159653 397.159653 0 0 0 122.183582 889.321943V914.085832a109.757929 109.757929 0 0 0 109.757929 109.367331h559.257663a109.757929 109.757929 0 0 0 109.367332-109.367331v-24.998248a396.847175 396.847175 0 0 0-119.288511-283.730106z" fill="#f7f7f7" p-id="6623"></path><path d="M232.253989 576.297015c3.984096-3.359139 7.811952-6.327681 11.327331-9.139984l5.858964-4.452813 0.859315-0.624956 6.952637-5.077769 10.936734-7.811952 2.421705-1.562391a403.409215 403.409215 0 0 1 74.526024-38.512924 286.698648 286.698648 0 0 1-138.115316-244.748465c0-6.405801 0-12.733482 0.703076-18.983044a171.081755 171.081755 0 0 0 24.52953 330.914298zM225.926308 581.609143a252.951015 252.951015 0 0 0-102.805292 39.059761l-1.562391 1.015554c-2.265466 1.56239-4.530932 3.046661-6.718278 4.687171l-4.374694 3.202901c-1.406151 1.015554-2.812303 2.031108-4.140334 3.124781-2.577944 1.952988-5.155888 3.984096-7.811953 6.093322l-0.859314 0.781196-2.187347 1.718629A262.950313 262.950313 0 0 0 5.004298 839.872285v17.342534a63.979889 63.979889 0 0 0 63.979889 63.979889h12.186645v-21.482869a421.220466 421.220466 0 0 1 107.648703-281.230281zM678.863301 509.426704a406.221518 406.221518 0 0 1 74.526024 38.512925l2.343586 1.56239 11.014853 7.811952 6.874518 5.077769 0.937434 0.624956 5.858964 4.452813c3.593498 2.812303 7.343235 5.780845 11.327331 9.139984a171.081755 171.081755 0 0 0 24.52953-330.914298c0.390598 6.249562 0.703076 12.577243 0.703076 18.983044A286.698648 286.698648 0 0 1 678.863301 509.426704zM928.220817 641.136219l-2.109227-1.718629-0.937434-0.781196c-2.499825-2.109227-4.999649-4.140335-7.811953-6.093322l-4.140334-3.124781-4.374694-3.202901c-2.187347-1.64051-4.452813-3.124781-6.796398-4.687171l-1.484271-1.015554a253.341612 253.341612 0 0 0-102.805292-39.059761l37.106773 36.716175a421.142347 421.142347 0 0 1 107.570583 281.230282v21.482869h12.186646a64.058009 64.058009 0 0 0 64.058008-63.979889v-17.030056a262.715955 262.715955 0 0 0-90.462407-198.736066z" fill="#f7f7f7" p-id="6624"></path></svg>
