<?xml version="1.0" standalone="no"?><!DOCTYPE svg PUBLIC "-//W3C//DTD SVG 1.1//EN" "http://www.w3.org/Graphics/SVG/1.1/DTD/svg11.dtd"><svg t="1621745695957" class="icon" viewBox="0 0 1024 1024" version="1.1" xmlns="http://www.w3.org/2000/svg" p-id="3315" width="64" height="64" xmlns:xlink="http://www.w3.org/1999/xlink"><defs><style type="text/css"></style></defs><path d="M517.094527 1024c-153.345274 0-438.129353-228.234826-438.129353-444.242786V167.60995c0-10.189055 8.151244-17.830846 18.849751-18.340298l24.963184-0.509453c1.018905 0 98.324378-2.037811 198.686568-41.775124C423.864677 66.228856 490.093532 19.359204 491.112438 18.849751l14.774129-10.189054c3.056716-2.037811 7.132338-3.566169 11.20796-3.56617 4.075622 0 8.151244 1.018905 11.207961 3.56617l14.774129 10.698507c0.509453 0.509453 67.247761 47.379104 170.157214 88.135323 100.362189 39.737313 197.667662 41.775124 198.686567 41.775125l24.453731 0.509452c10.189055 0 18.849751 8.151244 18.849752 18.340299v412.147264c0 215.498507-284.78408 443.733333-438.129354 443.733333z m370.881592-808.501493c-37.699502-3.056716-117.174129-12.736318-199.196019-45.341293-84.569154-33.114428-146.212935-70.304478-171.685573-87.116418-25.472637 16.302488-87.116418 54.00199-171.685572 87.116418-82.021891 32.604975-160.987065 42.284577-199.19602 45.341293v364.258707c0 169.138308 248.103483 376.485572 370.881592 376.485572 47.379104 0 140.099502-38.718408 230.78209-123.287562 87.625871-81.512438 140.099502-176.270647 140.099502-253.19801V215.498507z m-406.03383 433.544279c-6.113433 6.622886-14.774129 10.189055-23.944279 10.189055-9.170149 0-17.321393-3.566169-23.944279-10.189055l-101.381094-101.890547a33.827662 33.827662 0 0 1 0-47.888557c13.245771-13.245771 34.133333-13.245771 47.379104-0.509453l0.509453 0.509453 77.436816 77.946268 195.120398-196.648756c12.736318-13.245771 34.133333-13.245771 47.379104-0.509453l0.509453 0.509453c13.245771 13.245771 13.245771 34.642786 0 47.888557l-219.064676 220.593035z" p-id="3316" fill="#c1c4cc"></path></svg>
